<?xml version="1.0" encoding="UTF-8"?>
<svg width="197.56mm" height="328.17mm" version="1.1" viewBox="0 0 700.00001 1162.8239" xmlns="http://www.w3.org/2000/svg">
 <g transform="translate(-613.49 2065.6)">
  <g transform="matrix(.00042813 0 0 .00042813 -2568.6 -2249.2)" fill="#fcd116" stroke="#000" stroke-width="28222">
   <path d="m8.25e6 4.4286e5c-1.4015e5 0-2.5376e5 1.136e5 -2.5376e5 2.5376e5 0 1.4017e5 1.1361e5 2.5376e5 2.5376e5 2.5376e5s2.5376e5 -1.1359e5 2.5376e5 -2.5376e5c0-1.4016e5 -1.1361e5 -2.5376e5 -2.5376e5 -2.5376e5zm0 1.333e5c66391 0 1.2046e5 54072 1.2046e5 1.2046e5 0 66380-54072 1.2046e5 -1.2046e5 1.2046e5 -66391 0-1.1948e5 -54084-1.1948e5 -1.2046e5 0-66391 53085-1.2046e5 1.1948e5 -1.2046e5z"/>
   <path d="m8.1139e6 9.5038e5c5127.5 1.0196e5 -1.1214e5 3.0952e5 -3.485e5 3.0952e5m1.1013e6 161.9h-1.2335e6c1.4341e5 0 4.1116e5 -1.8418e5 4.1116e5 -3.0962e5h4.1116e5c0 1.2852e5 2.6e5 3.0962e5 4.1116e5 3.0962e5zm-6.4703e5 -3.0978e5s-25838 3.0966e5 -2.2334e5 3.0966e5"/>
   <path d="m8.25e6 3.1091e6 7.9607e5 -1.849e6 -1.5921e6 28 7.9607e5 1.849e6zm-4.8459e5 -1.849e6 4.8461e5 1.8488e6m-2.6537e5 -1.8488e6 2.6535e5 1.8489e6m-6.5797e5 -1.8489e6 6.5803e5 1.8489e6"/>
  </g>
 </g>
</svg>
